<?xml version="1.0" encoding="iso-8859-1"?>
<!-- Uploaded to: SVG Repo, www.svgrepo.com, Generator: SVG Repo Mixer Tools -->
<svg fill="#000000" height="800px" width="800px" version="1.1" id="Layer_1" xmlns="http://www.w3.org/2000/svg" xmlns:xlink="http://www.w3.org/1999/xlink" 
	 viewBox="0 0 300.643 300.643" xml:space="preserve">
<g>
	<g>
		<g>
			<path d="M111.612,87.74h-6.798c5.356-4.277,9.697-9.789,12.571-16.229c11.042-4.723,18.421-15.59,18.421-27.915v-4.244
				c0-11.865-8.584-21.765-19.868-23.806c-2.018-8.535-9.702-14.903-18.842-14.903H66.825c-9.852,0-19.113,3.837-26.327,11.047
				c-7.19,7.19-11.144,16.723-11.144,26.845V49.03h4.839v4.839c0,13.674,6.348,25.882,16.239,33.871H43.87
				c-24.015,0-43.548,19.539-43.548,43.548v48.387c0,16.011,13.021,29.032,29.032,29.032v91.935h96.774v-91.935
				c16.011,0,29.032-13.021,29.032-29.032v-48.387C155.16,107.279,135.627,87.74,111.612,87.74z M39.031,38.535
				c0-7.539,2.947-14.642,8.55-20.245c5.139-5.139,11.976-7.969,19.244-7.969h30.271c5.337,0,9.677,4.34,9.677,9.677v4.839h4.839
				c8.003,0,14.516,6.513,14.516,14.516v4.244c0,7.282-3.769,13.824-9.677,17.535V49.031c0-10.674-8.681-19.355-19.355-19.355
				h-2.003l-1.418,1.418c-5.327,5.327-12.406,8.26-19.94,8.26H39.031V38.535z M43.87,53.869V49.03h29.865
				c9.353,0,18.184-3.363,25.108-9.518c4.505,0.827,7.931,4.781,7.931,9.518v22.123C100.74,81.247,89.716,87.74,77.741,87.74
				C59.069,87.74,43.87,72.547,43.87,53.869z M68.064,114.522l9.677-6.45l9.677,6.45v74.831H68.064V114.522z M62.411,106.659
				c-1.606,1.069-4.026-0.213-4.026-2.153v-4.5c0-1.427,1.161-2.589,2.589-2.589c0.518,0.001,1.011,0.151,1.437,0.436l6.605,4.403
				L62.411,106.659z M86.465,102.257l6.605-4.403c1.606-1.069,4.026,0.213,4.026,2.153v4.5c0,1.94-2.419,3.222-4.026,2.153
				L86.465,102.257z M9.999,131.289c0-18.677,15.198-33.871,33.871-33.871h5.124c-0.179,0.837-0.285,1.698-0.285,2.589v4.5
				c0,5.874,4.156,10.785,9.677,11.981v85.205c0,4.069-0.726,8.071-2.158,11.894l-6.953,18.542
				c-1.756,4.689-5.608,8.226-10.244,9.702v-120.22h-9.677v58.065H9.999V131.289z M29.354,199.03
				c-7.133,0.001-13.307-3.919-16.665-9.677h16.665V199.03z M72.901,290.966H39.031v-9.677h33.871V290.966z M72.901,271.611H39.031
				v-19.873c8.685-1.684,16.132-7.747,19.306-16.215l6.953-18.542c1.839-4.911,2.773-10.055,2.773-15.29v-2.661h19.355v2.661
				c0,5.235,0.934,10.384,2.773,15.285l6.953,18.552c3.179,8.463,10.626,14.526,19.306,16.21v19.873H82.58v-53.226h-9.678V271.611z
				 M116.451,290.966H82.58v-9.677h33.871V290.966z M126.128,199.031v-9.677h16.665C139.435,195.111,133.26,199.031,126.128,199.031
				z M145.483,179.676h-19.355v-58.065h-9.677v120.213c-4.635-1.476-8.487-5.008-10.244-9.697l-6.953-18.552
				c-1.432-3.813-2.158-7.815-2.158-11.884v-85.205c5.521-1.195,9.677-6.106,9.677-11.981v-4.5c0-0.89-0.106-1.752-0.285-2.589
				h5.124c18.673,0,33.871,15.194,33.871,33.871V179.676z"/>
			<path d="M300.322,179.676V82.902h-52.084c-5.99,0-11.56,2.342-15.658,6.382c-4.103-4.04-9.668-6.382-15.658-6.382h-52.084v96.774
				h62.903v111.29H193.87v9.677h77.419v-9.677h-33.871v-111.29H300.322z M237.418,98.835c2.275-3.841,6.296-6.256,10.82-6.256
				h42.406v77.419h-53.226V98.835z M174.513,169.998V92.579h0.001h42.406c4.524,0,8.545,2.415,10.819,6.256v32.423
				c-0.011-7.802-4.348-14.815-11.331-18.303l-17.7-8.85v28.074c-1.519-0.542-3.135-0.89-4.839-0.89
				c-8.003,0-14.516,6.513-14.516,14.516s6.513,14.516,14.516,14.516s14.516-6.513,14.516-14.516v-26.042l3.697,1.848
				c3.687,1.844,5.981,5.55,5.981,9.677h9.676v38.71H174.513z M198.708,145.805c0,2.666-2.168,4.839-4.839,4.839
				s-4.839-2.173-4.839-4.839s2.168-4.839,4.839-4.839S198.708,143.139,198.708,145.805z"/>
			<path d="M232.58,58.708c8.003,0,14.516-6.513,14.516-14.516V14.594l29.032-3.629v14.763c-1.519-0.542-3.135-0.89-4.839-0.89
				c-8.003,0-14.516,6.513-14.516,14.516s6.513,14.516,14.516,14.516s14.516-6.513,14.516-14.516V0l-48.387,6.048v24.518
				c-1.519-0.542-3.135-0.89-4.839-0.89c-8.003,0-14.516,6.513-14.516,14.516S224.577,58.708,232.58,58.708z M271.29,44.192
				c-2.671,0-4.839-2.173-4.839-4.839c0-2.666,2.168-4.839,4.839-4.839c2.671,0,4.839,2.173,4.839,4.839
				C276.129,42.019,273.96,44.192,271.29,44.192z M232.58,39.353c2.671,0,4.839,2.173,4.839,4.839c0,2.666-2.168,4.839-4.839,4.839
				s-4.839-2.173-4.839-4.839C227.741,41.526,229.909,39.353,232.58,39.353z"/>
		</g>
	</g>
</g>
</svg>