<svg height="200px" width="200px" version="1.1" id="_x32_" xmlns="http://www.w3.org/2000/svg" xmlns:xlink="http://www.w3.org/1999/xlink" viewBox="0 0 512 512" xml:space="preserve" fill="#000000" stroke="#000000"><g id="SVGRepo_bgCarrier" stroke-width="0"></g><g id="SVGRepo_tracerCarrier" stroke-linecap="round" stroke-linejoin="round"></g><g id="SVGRepo_iconCarrier"> <style type="text/css"> .st0{fill:#B71F2D;} </style> <g> <path class="st0" d="M171.379,164.484l0.143-0.09c0.008-0.007,0.016-0.016,0.029-0.024L171.379,164.484z"></path> <path class="st0" d="M178.894,256.867c1.889-2.238,3.741-4.331,5.512-6.236c3.973-4.226,7.536-7.458,10.886-9.86 c1.314-0.953,2.609-1.766,3.855-2.434l2.145-1.124l0.786,2.296c0.228,0.7,0.562,1.351,0.977,1.954 c0.264,0.374,0.558,0.733,0.891,1.058c2.662,2.67,6.851,3.046,9.945,0.88c2.279-1.58,3.542-4.291,3.309-7.075l-0.093-1.116 l0.098-0.082l-0.634-1.27c-0.2-0.456-0.444-0.896-0.721-1.286c-0.26-0.383-0.558-0.733-0.883-1.059 c-0.428-0.431-0.912-0.814-1.433-1.131l-0.093-0.049l-0.082-0.065c-0.501-0.383-0.985-0.709-1.49-0.986 c-2.06-1.196-4.62-1.888-7.23-1.937c-2.443-0.074-5.056,0.367-7.755,1.286c-2.352,0.782-4.803,1.946-7.286,3.436 c-4.294,2.605-8.642,6.098-13.287,10.682c-2.06,2.044-4.144,4.282-6.192,6.643l-2.895,3.355c-0.92,1.042-1.901,2.125-2.919,3.191 c-4.112,4.348-8.28,8.028-12.387,10.926c-4.226,3.013-8.541,5.276-12.469,6.546c-0.599,0.195-1.193,0.366-1.775,0.505l-2.805,0.732 l0.232-2.89c0.167-2.036-0.395-4.104-1.572-5.805c-0.305-0.44-0.651-0.847-1.025-1.221c-3.05-3.045-7.837-3.468-11.382-1.01 c-3.602,2.508-4.844,7.351-2.886,11.284l0.041,0.082l0.032,0.089c0.456,1.18,1.07,2.255,1.832,3.216 c0.314,0.39,0.652,0.766,1.014,1.14c1.388,1.376,3.155,2.54,5.113,3.322c4.469,1.808,9.993,2.011,15.978,0.57 c5.247-1.254,10.637-3.68,16.031-7.214c4.954-3.232,9.818-7.376,14.463-12.269c1.128-1.197,2.222-2.419,3.253-3.599l1.514-1.799 L178.894,256.867z"></path> <path class="st0" d="M269.054,298.568c-2.153,3.094-1.783,7.278,0.879,9.948c0.334,0.326,0.689,0.62,1.067,0.888 c0.602,0.415,1.254,0.741,1.946,0.985l2.308,0.781l-1.144,2.15c-0.664,1.238-1.47,2.54-2.414,3.851 c-2.414,3.346-5.634,6.912-9.872,10.886c-1.893,1.775-3.989,3.623-6.241,5.52l-1.656,1.368l-1.791,1.514 c-1.21,1.034-2.423,2.133-3.608,3.256c-4.909,4.657-9.036,9.51-12.281,14.476c-3.537,5.389-5.956,10.779-7.213,16.022 c-1.433,5.992-1.234,11.512,0.57,15.974c0.786,1.971,1.942,3.729,3.334,5.121c0.354,0.359,0.737,0.7,1.144,1.018 c0.945,0.749,2.019,1.367,3.2,1.824l0.094,0.032l0.081,0.041c3.924,1.97,8.777,0.724,11.284-2.89 c2.464-3.533,2.036-8.337-1.013-11.373c-0.375-0.374-0.786-0.717-1.226-1.034c-1.701-1.173-3.766-1.742-5.805-1.563l-2.886,0.228 l0.724-2.8c0.143-0.587,0.318-1.173,0.517-1.775c1.274-3.941,3.542-8.24,6.534-12.473c2.914-4.103,6.587-8.28,10.934-12.392 c1.071-1.025,2.146-1.986,3.212-2.93l3.342-2.866c2.361-2.052,4.595-4.136,6.631-6.203c4.596-4.649,8.093-8.997,10.682-13.279 c1.502-2.483,2.658-4.942,3.456-7.287c0.912-2.711,1.335-5.325,1.274-7.767c-0.057-2.605-0.745-5.162-1.942-7.246 c-0.277-0.488-0.598-0.969-0.977-1.466l-0.069-0.081l-0.053-0.098c-0.322-0.521-0.704-1.002-1.132-1.433 c-0.321-0.318-0.671-0.627-1.046-0.88c-0.402-0.277-0.838-0.537-1.376-0.765l-1.189-0.594l-0.077,0.098l-1.115-0.098 C273.344,295.027,270.633,296.296,269.054,298.568z"></path> <polygon class="st0" points="461.395,22.862 419.319,62.984 448.555,92.22 488.669,50.136 "></polygon> <polygon class="st0" points="511.53,14.24 497.299,0 489.89,6.644 483.76,0.504 465.108,17.195 494.335,46.423 511.034,27.779 504.903,21.656 "></polygon> <path class="st0" d="M474.56,86.089c-1.067-1.059-2.646-1.205-3.534-0.318l-11.243,11.244c-0.887,0.895-0.733,2.475,0.318,3.541 l7.71,7.71c1.066,1.066,2.654,1.204,3.542,0.318l11.243-11.244c0.88-0.879,0.75-2.467-0.325-3.534L474.56,86.089z"></path> <path class="st0" d="M498.659,61.99c-1.066-1.05-2.646-1.205-3.533-0.309l-11.244,11.236c-0.887,0.896-0.749,2.475,0.318,3.533 l7.71,7.718c1.067,1.075,2.655,1.213,3.542,0.325l11.236-11.252c0.895-0.879,0.748-2.474-0.318-3.533L498.659,61.99z"></path> <path class="st0" d="M411.902,52.359c1.067,1.066,2.655,1.205,3.534,0.317l11.252-11.252c0.878-0.879,0.748-2.467-0.326-3.525 l-7.71-7.71c-1.058-1.075-2.646-1.206-3.525-0.326l-11.244,11.252c-0.895,0.895-0.757,2.475,0.309,3.534L411.902,52.359z"></path> <path class="st0" d="M436.002,28.267c1.066,1.066,2.645,1.189,3.533,0.318l11.252-11.244c0.887-0.888,0.741-2.475-0.318-3.55 L442.75,6.09c-1.066-1.059-2.645-1.205-3.533-0.326l-11.252,11.252c-0.88,0.887-0.741,2.459,0.333,3.534L436.002,28.267z"></path> <polygon class="st0" points="177.302,299.008 213.446,335.148 223.307,325.297 187.166,289.157 "></polygon> <path class="st0" d="M412.749,69.252l-80.129,76.864c-6.542-5.527-13.182-10.6-19.902-15.053 c-9.616-6.375-19.39-11.545-29.27-15.192c-7.408-2.727-14.886-4.592-22.369-5.422c-11.224-1.27-22.491-0.146-33.356,3.794 c-10.869,3.924-21.265,10.65-30.938,20.33c-1.974,1.978-3.859,4.217-5.732,6.594c-2.8,3.55-5.576,7.401-8.304,10.999 c-2.72,3.599-5.402,6.92-7.795,9.314c-1.274,1.278-2.455,2.264-3.407,2.899l-0.025,0.016c-0.431,0.294-0.85,0.636-1.233,1.01 c-0.655,0.652-1.185,1.425-1.552,2.166c-0.366,0.741-0.586,1.441-0.728,2.084c-0.269,1.254-0.248,2.279-0.191,3.176 c0.134,1.685,0.472,3.044,0.835,4.494c0.326,1.238,0.684,2.508,1.038,3.843c1.254,4.64,2.402,10.046,1.686,15.819 c-0.367,2.899-1.177,5.887-2.744,9.078c-1.568,3.175-3.917,6.562-7.454,10.095c-2.344,2.345-5.219,4.755-8.728,7.198 c-4.18,2.914-7.933,4.828-11.256,6.008c-2.906,1.042-5.488,1.53-7.836,1.661c-4.095,0.212-7.531-0.619-10.747-2.035 c-2.405-1.091-4.653-2.524-6.733-4.088c-1.563-1.188-3.033-2.45-4.429-3.68c-1.042-0.92-2.044-1.84-3.046-2.686 c-0.753-0.652-1.498-1.271-2.308-1.881c-0.607-0.432-1.241-0.879-1.978-1.294c-0.558-0.293-1.169-0.619-1.893-0.855 c-0.545-0.203-1.152-0.367-1.836-0.473c-1.022-0.154-2.255-0.154-3.492,0.171c-1.242,0.31-2.43,0.961-3.326,1.71 c-2.613,2.19-6.591,4.82-11.296,7.621c-7.072,4.233-15.778,8.972-24.474,14.288c-8.707,5.325-17.418,11.212-24.652,18.042 c-0.806,0.757-1.596,1.522-2.37,2.304c-13.295,13.271-22.056,28.576-26.562,44.852c-3.392,12.204-4.408,24.945-3.342,37.842 c1.608,19.337,7.873,38.982,17.9,57.984c10.03,19.011,23.826,37.395,40.634,54.207c14.944,14.947,31.126,27.502,47.889,37.15 c25.138,14.468,51.618,22.438,77.13,21.754c12.746-0.367,25.231-2.914,37.024-7.898c11.794-4.982,22.878-12.408,32.847-22.373 c0.774-0.781,1.543-1.563,2.3-2.377c4.559-4.82,8.679-10.291,12.51-15.99c5.744-8.548,10.82-17.594,15.412-25.581 c2.288-3.989,4.458-7.702,6.477-10.934c2.015-3.224,3.912-5.96,5.544-7.905c0.615-0.75,1.165-1.661,1.506-2.655 c0.342-0.96,0.493-1.97,0.476-2.882c-0.004-0.88-0.134-1.669-0.321-2.361c-0.371-1.343-0.896-2.329-1.422-3.192 c-0.496-0.814-1.017-1.514-1.563-2.198c-1.013-1.27-2.092-2.474-3.22-3.745c-1.974-2.214-4.071-4.616-5.858-7.287 c-1.34-1.995-2.504-4.128-3.338-6.383c-0.623-1.71-1.066-3.485-1.274-5.398c-0.31-2.858-0.11-6.025,0.997-9.786 c1.103-3.738,3.134-8.06,6.578-13.011c2.447-3.501,4.857-6.383,7.202-8.72c2.63-2.63,5.17-4.6,7.597-6.082 c4.266-2.588,8.19-3.745,11.935-4.168c5.609-0.618,10.865,0.497,15.392,1.71c1.136,0.301,2.223,0.618,3.293,0.912 c0.806,0.204,1.592,0.407,2.402,0.57c1.221,0.261,2.458,0.488,4.091,0.44c0.81-0.017,1.751-0.13,2.817-0.497 c1.05-0.366,2.255-1.018,3.224-1.994c0.383-0.382,0.741-0.814,1.034-1.27c0.627-0.944,1.612-2.134,2.89-3.403 c1.588-1.579,3.606-3.322,5.838-5.096c3.338-2.67,7.165-5.422,10.845-8.207c3.696-2.785,7.262-5.561,10.226-8.516 c5.732-5.732,10.437-11.716,14.126-17.911c6.473-10.828,9.835-22.316,10.404-33.918c0.432-8.712-0.675-17.472-3.053-26.168 c-3.557-13.042-9.932-25.922-18.359-38.542c-4.575-6.839-9.794-13.597-15.478-20.256l76.751-80.097L412.749,69.252z M97.567,227.085L97.567,227.085L97.567,227.085L97.567,227.085z M370.209,207.154c5.903,8.907,10.576,17.798,13.784,26.501 c2.402,6.522,3.981,12.938,4.673,19.223c1.042,9.396,0.131,18.449-3.069,27.298c-3.2,8.826-8.72,17.513-17.203,25.996 c-1.384,1.392-3.256,3.004-5.422,4.706c-3.216,2.533-7.018,5.276-10.787,8.126c-3.778,2.865-7.507,5.829-10.698,9.02 c-0.912,0.912-1.637,1.938-2.451,2.915c-0.346-0.082-0.68-0.162-1.103-0.277c-2.166-0.57-5.191-1.482-8.781-2.198 c-2.691-0.521-5.716-0.945-9-1.018c-4.93-0.105-10.462,0.578-16.178,2.801c-5.715,2.206-11.544,5.918-17.162,11.545 c-2.963,2.954-5.878,6.456-8.727,10.551c-3.485,5.007-5.993,9.803-7.637,14.402c-1.433,4.03-2.215,7.93-2.418,11.594 c-0.37,6.464,1.05,12.221,3.204,17.016c1.616,3.598,3.631,6.684,5.626,9.322c1.502,1.978,2.992,3.713,4.311,5.211 c0.985,1.132,1.885,2.109,2.593,2.94c0.134,0.154,0.196,0.244,0.313,0.383c-2.227,3.02-4.417,6.325-6.668,10.078 c-4.445,7.433-9.135,16.047-14.227,24.376c-5.081,8.329-10.58,16.356-16.34,22.43c-0.676,0.709-1.356,1.408-2.039,2.092 c-11.753,11.732-24.881,19.206-38.954,23.13c-10.56,2.931-21.668,3.842-33.136,2.898c-17.191-1.432-35.168-7.083-52.835-16.405 c-13.857-7.295-27.486-16.927-40.423-28.407L164.708,385l-18.62-18.628l-18.62-18.62l-68.451,85.299 c-9.855-11.113-18.31-22.748-25.13-34.585c-6.749-11.724-11.911-23.643-15.286-35.432c-5.064-17.675-6.138-35-2.744-51.096 c3.403-16.112,11.207-31.052,24.413-44.282c0.684-0.692,1.384-1.36,2.1-2.028c4.055-3.842,8.968-7.572,14.264-11.137 c7.946-5.342,16.714-10.283,24.767-14.916c4.026-2.296,7.872-4.534,11.378-6.733c2.365-1.474,4.494-2.947,6.509-4.437 c0.566,0.488,1.201,1.042,1.934,1.693c2.214,1.97,5.08,4.56,8.626,7.001c2.662,1.84,5.732,3.599,9.245,4.951 c2.634,1.01,5.524,1.799,8.634,2.166c4.657,0.586,9.811,0.244,15.234-1.32c5.442-1.563,11.146-4.331,17.162-8.515 c4.092-2.85,7.584-5.764,10.548-8.736c6.64-6.627,10.62-13.58,12.607-20.232c1.494-5.007,1.889-9.787,1.702-14.085 c-0.143-3.216-0.603-6.171-1.148-8.793c-0.407-1.962-0.871-3.745-1.295-5.284c-0.305-1.164-0.599-2.198-0.822-3.053 c-0.086-0.309-0.126-0.513-0.188-0.781c0.969-0.806,2.003-1.531,2.914-2.443c2.129-2.125,4.144-4.494,6.11-6.953 c2.935-3.688,5.761-7.604,8.435-11.138c2.658-3.55,5.198-6.726,7.291-8.817c5.031-5.024,10.136-9.013,15.29-12.107 c9.033-5.373,18.208-8.028,27.71-8.5c7.124-0.358,14.456,0.537,21.97,2.588c11.256,3.07,22.919,8.761,34.61,16.576 c5.684,3.794,11.374,8.101,17.028,12.832l-86.101,82.588l18.4,18.384l18.404,18.408l82.608-86.211 C361.391,194.78,366.106,200.967,370.209,207.154z"></path> </g> </g></svg>